<svg xmlns="http://www.w3.org/2000/svg" width="16" height="14.025" viewBox="0 0 16 14.025">
    <path data-name="Path 21175" d="M10.171-9.062a.994.994 0 0 0-1.6 0L6.277-5.6l-.514-.7a.978.978 0 0 0-1.556 0L2.188-3.513a.964.964 0 0 0-.08 1 .953.953 0 0 0 .858.53h10.1a.959.959 0 0 0 .85-.513.968.968 0 0 0-.047-.988zM3-2.982l1.952-2.736.936 1.294a.475.475 0 0 0 .416.208.5.5 0 0 0 .408-.225l2.625-4.066 3.655 5.525H3zM14-13H1.975A2 2 0 0 0 0-11V-.979a2 2 0 0 0 1.975 2H14a2 2 0 0 0 2-2V-11a1.986 1.986 0 0 0-2-2zM15.026-.979a1 1 0 0 1-1 1H2a1 1 0 0 1-1-1V-11a1 1 0 0 1 1-1h12.025a1 1 0 0 1 1 1zM4.508-7.991a1.5 1.5 0 0 0 1.5-1.5 1.5 1.5 0 0 0-1.5-1.5 1.5 1.5 0 0 0-1.5 1.5 1.5 1.5 0 0 0 1.5 1.5zm0-2a.478.478 0 0 1 .473.5.479.479 0 0 1-.473.5.5.5 0 0 1-.5-.5.5.5 0 0 1 .5-.504z" transform="translate(0 13)" style="fill:#009eff"/>
</svg>
